<?xml version="1.0" encoding="UTF-8"?>
<svg width="268px" height="61px" viewBox="0 0 268 61" version="1.1" xmlns="http://www.w3.org/2000/svg" xmlns:xlink="http://www.w3.org/1999/xlink">
    <!-- Generator: Sketch 50 (54983) - http://www.bohemiancoding.com/sketch -->
    <title>color</title>
    <desc>Created with Sketch.</desc>
    <defs></defs>
    <g id="Screens" stroke="none" stroke-width="1" fill="none" fill-rule="evenodd">
        <g id="Play" transform="translate(-54.000000, -309.000000)">
            <g id="color" transform="translate(54.000000, 309.000000)">
                <polygon id="Path" fill="#B074A4" points="41.4647961 13.0197743 40.6334232 10.4674556 39.0080863 9.02366864 33.7708895 8.30177515 31.9649596 7.57988166 31.0619946 5.77514793 31.0619946 3.06804734 32.6873315 1.26331361 33.7708895 0.180473373 147.725067 1.26331361 147.725067 60.8195266 32.6873315 60.8195266 31.0619946 59.7366864 29.9784367 58.112426 29.9784367 55.9467456 29.9784367 54.1420118 31.9649596 52.3372781 37.5633423 52.3372781 39.7304582 51.0739645 40.6334232 48.7278107 40.6334232 46.9230769 39.7304582 45.1183432 37.5633423 43.6745562 23.8382749 42.9526627 21.490566 42.0502959 20.5876011 40.2455621 20.5876011 38.0798817 21.490566 36.2751479 23.8382749 34.8313609 39.7304582 34.8313609 41.4647961 33.9289941 42.9811321 32.1242604 42.9811321 29.2366864 41.4647961 27.2514793 39.7304582 25.9881657 26.9083558 25.9881657 25.1024259 24.183432 25.1024259 19.6715976 26.9083558 17.6863905 39.7304582 16.964497 41.4647961 14.7988166"></polygon>
                <polygon id="Path-2" fill="#B074A4" points="2.34770889 36.4556213 13.3638814 36.4556213 14.6280323 37.7189349 15.5309973 39.5236686 15.5309973 40.9674556 13.9056604 42.591716 12.8221024 43.3136095 2.34770889 43.3136095 0.90296496 42.0502959 0 39.8846154 0.90296496 37.7189349"></polygon>
                <polygon id="Path-3" fill="#B074A4" points="11.5579515 20.2130178 18.7816712 20.2130178 19.6846361 21.295858 20.2264151 22.5591716 20.2264151 23.6420118 18.7816712 25.0857988 11.5579515 25.0857988 10.2938005 23.6420118 10.2938005 21.8372781"></polygon>
                <polygon id="Path-4" fill="#FFD166" points="163.617251 0.180473373 215.628032 0.180473373 219.420485 2.52662722 219.420485 21.1153846 263.485175 21.1153846 265.110512 21.8372781 266.735849 23.2810651 268 25.2662722 268 34.1094675 266.735849 35.9142012 265.110512 37.7189349 263.485175 38.4408284 219.420485 38.4408284 219.420485 55.9467456 218.698113 57.0295858 217.072776 58.2928994 215.628032 58.8343195 163.617251 58.8343195"></polygon>
                <polygon id="Path-5" fill="#ECE6C4" points="163.436658 0.180473373 199.374663 0.180473373 199.374663 59.0147929 163.436658 59.0147929"></polygon>
                <polygon id="Path-6" fill="#B074A4" points="163.617251 0 180.954178 0 182.218329 1.08284024 182.760108 2.16568047 182.760108 4.33136095 181.857143 5.41420118 180.954178 6.49704142 174.994609 6.49704142 173.549865 7.39940828 172.827493 8.48224852 172.827493 10.8284024 173.911051 11.9112426 174.994609 12.6331361 178.245283 12.6331361 179.328841 13.535503 180.231806 14.2573964 180.231806 16.964497 179.328841 18.2278107 178.245283 19.1301775 173.188679 19.1301775 171.924528 19.6715976 171.021563 21.4763314 171.021563 23.1005917 171.924528 24.3639053 173.188679 25.2662722 179.87062 25.2662722 180.954178 25.9881657 181.857143 27.2514793 181.857143 29.5976331 180.954178 31.0414201 179.328841 31.7633136 174.45283 31.7633136 173.188679 33.387574 172.466307 34.4704142 172.466307 35.3727811 173.549865 36.6360947 174.994609 37.8994083 184.927224 37.8994083 186.010782 38.8017751 186.733154 39.704142 186.733154 42.2307692 185.28841 44.2159763 174.45283 44.2159763 173.188679 45.8402367 172.466307 46.5621302 172.466307 48.1863905 173.549865 49.4497041 175.175202 50.5325444 188.539084 50.5325444 190.345013 51.4349112 190.886792 52.3372781 190.886792 54.8639053 189.803235 55.9467456 188.539084 57.0295858 175.175202 57.0295858 173.549865 57.9319527 173.549865 59.0147929 163.617251 59.0147929"></polygon>
            </g>
        </g>
    </g>
</svg>